<svg xmlns="http://www.w3.org/2000/svg" viewBox="0 0 60.22 37.77"><defs><style>.cls-1,.cls-2{fill:none;stroke-miterlimit:10;}.cls-1{stroke:#0083a1;}.cls-2{stroke:#e39717;}</style></defs><g id="Layer_2" data-name="Layer 2"><g id="Layer_2-2" data-name="Layer 2"><path class="cls-1" d="M25.26,34.56H3.5a3,3,0,0,1-3-3V3.5a3,3,0,0,1,3-3H42.73a3,3,0,0,1,3,3v8.55"/><rect class="cls-2" x="25.27" y="12.05" width="34.45" height="25.22" rx="3.79"/><line class="cls-1" x1="42.49" y1="2.73" x2="41.24" y2="2.73"/><line class="cls-1" x1="39.98" y1="2.73" x2="38.73" y2="2.73"/><line class="cls-1" x1="37.47" y1="2.73" x2="36.21" y2="2.73"/><line class="cls-2" x1="56.94" y1="14.48" x2="55.68" y2="14.48"/><line class="cls-2" x1="54.43" y1="14.48" x2="53.17" y2="14.48"/><line class="cls-2" x1="51.92" y1="14.48" x2="50.66" y2="14.48"/><line class="cls-1" x1="3.46" y1="6.86" x2="29.39" y2="6.86"/><line class="cls-1" x1="3.46" y1="9.1" x2="13.33" y2="9.1"/><line class="cls-1" x1="3.46" y1="11.34" x2="8.4" y2="11.34"/><line class="cls-1" x1="3.46" y1="13.59" x2="17.46" y2="13.59"/><line class="cls-1" x1="3.46" y1="15.83" x2="14.05" y2="15.83"/><line class="cls-1" x1="3.46" y1="18.07" x2="22.04" y2="18.07"/><line class="cls-2" x1="28.59" y1="15.83" x2="36.84" y2="15.83"/><line class="cls-2" x1="28.59" y1="18.07" x2="33.97" y2="18.07"/><line class="cls-2" x1="28.59" y1="20.32" x2="52.01" y2="20.32"/><line class="cls-2" x1="28.59" y1="22.56" x2="31.28" y2="22.56"/><line class="cls-2" x1="28.59" y1="24.8" x2="34.42" y2="24.8"/><line class="cls-2" x1="28.59" y1="27.05" x2="38.1" y2="27.05"/><line class="cls-2" x1="28.59" y1="29.29" x2="41.24" y2="29.29"/></g></g></svg>