<svg xmlns="http://www.w3.org/2000/svg" viewBox="0 0 14 17.95"><defs><style>.cls-1{fill:#848484;}.cls-2{fill:none;stroke:#848484;stroke-linecap:round;stroke-miterlimit:10;stroke-width:0.75px;}</style></defs><g id="Layer_2" data-name="Layer 2"><g id="Layer_2-2" data-name="Layer 2"><path class="cls-1" d="M2.27,1.26A4.58,4.58,0,0,1,5.21,0,1.67,1.67,0,0,1,6.1.28a8.06,8.06,0,0,1,.72.47.54.54,0,0,1,.23.64c-.19.7-.38,1.41-.56,2.11-.09.36-.15.73-.24,1.09A.52.52,0,0,1,5.74,5c-.42,0-.83,0-1.24,0L3.8,5c-.44,0-.6.14-.72.57a10.93,10.93,0,0,0,0,6.67l.12.38a.59.59,0,0,0,.65.43l1-.09c.31,0,.63,0,.94,0a.55.55,0,0,1,.55.44c.15.55.29,1.11.45,1.66s.29,1,.45,1.49a.55.55,0,0,1-.22.67,11.84,11.84,0,0,1-1.13.7,1.42,1.42,0,0,1-.68.08,4.27,4.27,0,0,1-2.52-1,3.92,3.92,0,0,1-.86-1A14.17,14.17,0,0,1,.51,12.87,14,14,0,0,1,0,9.22a13.61,13.61,0,0,1,.4-4.07,16,16,0,0,1,.81-2.08A13.86,13.86,0,0,1,2,1.6,2.34,2.34,0,0,1,2.27,1.26Z" transform="translate(0 0)"/><path class="cls-2" d="M7.78,11.48a3.25,3.25,0,0,0-.11-5.07" transform="translate(0 0)"/><path class="cls-2" d="M10.12,12.13A4.89,4.89,0,0,0,10,5.76" transform="translate(0 0)"/><path class="cls-2" d="M12.42,12.82A6.67,6.67,0,0,0,13.62,9a6.56,6.56,0,0,0-1.26-3.9" transform="translate(0 0)"/></g></g></svg>