<svg xmlns="http://www.w3.org/2000/svg" viewBox="0 0 63.63 53.6"><defs><style>.cls-1,.cls-3{fill:none;stroke-miterlimit:10;}.cls-1{stroke:#e39717;}.cls-2{fill:#0083a1;}.cls-3{stroke:#0083a1;}</style></defs><g id="Layer_2" data-name="Layer 2"><g id="Layer_2-2" data-name="Layer 2"><path class="cls-1" d="M28,38.82a14.54,14.54,0,0,0-9,7.78h0a25.91,25.91,0,0,0-2.24,6.48c0,.09-.07-.28-.07-.28l-.06-10.16v-2a5.29,5.29,0,1,0-4.43,0v1.78l-.06,10.34c0,.09-.11.09-.13,0A23.59,23.59,0,0,0,8.83,45a14,14,0,0,0-8-6.13c.63-1,1.27-2,1.89-3a45,45,0,0,0,5.65-13c.08-.3.21-.37.5-.37H20a.42.42,0,0,1,.49.37,45.25,45.25,0,0,0,5.66,13C26.75,36.82,27.38,37.81,28,38.82Z"/><rect class="cls-1" x="8.28" y="14.13" width="12.24" height="5.63"/><path class="cls-1" d="M8.28,14.13A21.86,21.86,0,0,1,3.18,0"/><path class="cls-1" d="M20.52,14.13A21.88,21.88,0,0,0,25.61,0"/><path class="cls-2" d="M12.17,42.45l-.06,10.34c0,.09-.11.09-.13,0A23.59,23.59,0,0,0,8.83,45c-.22-2.43-.34-6.44,1.76-4.06A12.33,12.33,0,0,0,12.17,42.45Z"/><path class="cls-2" d="M19,46.6h0a25.91,25.91,0,0,0-2.24,6.48c0,.09-.07-.28-.07-.28l-.06-10.16C18.05,42.42,20.74,42.44,19,46.6Z"/><line class="cls-3" x1="54.34" y1="32.15" x2="61.67" y2="32.15"/><polyline class="cls-3" points="47.01 32.15 48.27 32.15 50.31 32.15"/><polyline class="cls-3" points="38.58 32.15 43.72 32.15 44.03 32.15"/><path class="cls-3" d="M20.52,52.86H58a5.15,5.15,0,0,0,5.15-5.14h0A5.16,5.16,0,0,0,58,42.57H37.51a5.22,5.22,0,0,1-5.22-5.21h0a5.22,5.22,0,0,1,5.22-5.21h7.3"/></g></g></svg>