<svg xmlns="http://www.w3.org/2000/svg" xmlns:xlink="http://www.w3.org/1999/xlink" viewBox="0 0 250 250"><defs><style>.cls-1{isolation:isolate;}.cls-2{fill:url(#radial-gradient);}.cls-3{mix-blend-mode:screen;opacity:0.17;}.cls-4{fill:#fff;}</style><radialGradient id="radial-gradient" cx="125" cy="125" r="229.81" gradientUnits="userSpaceOnUse"><stop offset="0" stop-color="#4aafc7" stop-opacity="0.4"/><stop offset="1" stop-color="#45adc4"/></radialGradient></defs><g class="cls-1"><g id="Layer_2" data-name="Layer 2"><g id="Layer_2-2" data-name="Layer 2"><rect class="cls-2" width="250" height="250" rx="25"/><g class="cls-3"><path class="cls-4" d="M89.32,196.51a.6.6,0,0,0-.29-.08l-1.67-.13c-.49,0-1-.09-1.48-.15l-1.61-.22a34.41,34.41,0,0,1-3.64-.71,33.05,33.05,0,0,1-5.33-1.79,27.37,27.37,0,0,1-6.3-3.78,23.88,23.88,0,0,1-6.45-8,17.92,17.92,0,0,1-1.39-3.7,27.78,27.78,0,0,1-.56-2.86c-.11-.78-.2-1.57-.25-2.36s-.09-1.81-.06-2.72c0-.41,0-.82,0-1.23,0-.65.09-1.29.16-1.93s.14-1.11.21-1.66c.17-1.15.4-2.28.67-3.4a51.18,51.18,0,0,1,3.34-9.39,74.37,74.37,0,0,1,5.07-9.06A101,101,0,0,1,76,134.87q2.11-2.61,4.38-5.11c.82-.9,1.69-1.76,2.56-2.61,2.81-2.7,5.74-5.25,8.78-7.69a140.83,140.83,0,0,1,15.21-10.68,124.67,124.67,0,0,1,15.49-8c3-1.29,6-2.45,9.15-3.46l.42-.13s.06,0,.09,0a1,1,0,0,1-.38.23c-.73.35-1.46.69-2.18,1.06a88.26,88.26,0,0,0-8.84,5.25,104.68,104.68,0,0,0-14.83,12.15c-1.5,1.48-3,3-4.37,4.57a65.33,65.33,0,0,0-10.52,16,51.59,51.59,0,0,0-2.79,7.5,43.62,43.62,0,0,0-1,4.53c-.15.91-.26,1.83-.34,2.75s-.11,1.68-.13,2.52a27.83,27.83,0,0,0,.13,3.16c.07.77.17,1.54.3,2.3a25.61,25.61,0,0,0,2.93,8.21,26.27,26.27,0,0,0,5.59,6.87,31.9,31.9,0,0,0,12.76,6.9,32.57,32.57,0,0,0,3.53.75c.81.12,1.63.22,2.45.3a58.77,58.77,0,0,0,6.08.27c1.19,0,2.37-.07,3.55-.17.53,0,1.06-.08,1.58-.14s1.24-.17,1.86-.25c.79-.11,1.56-.26,2.34-.41a48,48,0,0,0,5.54-1.45,58.22,58.22,0,0,0,9.82-4.27,79.93,79.93,0,0,0,10.12-6.56q4.29-3.27,8.28-6.91c2-1.86,4-3.79,6-5.74,1.35-1.34,2.62-2.75,3.85-4.19a95.88,95.88,0,0,0,7.39-10,67,67,0,0,0,4.36-7.87,45.9,45.9,0,0,0,2.36-6.13,34.21,34.21,0,0,0,1-4.48,21.37,21.37,0,0,0,.24-2.26c0-.46.06-.92.06-1.38a22.81,22.81,0,0,0-.26-3.5,18.5,18.5,0,0,0-.85-3.45,14.42,14.42,0,0,0-5.52-7.16,18.24,18.24,0,0,0-4.27-2.16,26.58,26.58,0,0,0-3.72-1c-.71-.14-1.42-.26-2.14-.36s-1.67-.19-2.51-.24c-1.24-.09-2.47-.1-3.71-.07-.81,0-1.61.07-2.42.16l-1.38.13c-.54.07-1.08.13-1.61.22-1,.16-1.95.33-2.92.54-1.39.29-2.76.64-4.12,1a88,88,0,0,0-14.61,5.62,64.86,64.86,0,0,0-8,4.6,45.31,45.31,0,0,0-6.12,4.92,32.79,32.79,0,0,0-3.81,4.35,21.47,21.47,0,0,0-2.72,5,17.47,17.47,0,0,0-1,3.68,15.06,15.06,0,0,0-.06,3.55,14.87,14.87,0,0,0,2.17,6.26,19.77,19.77,0,0,0,2.78,3.52,27.51,27.51,0,0,0,3.1,2.7l.2.14a.19.19,0,0,0,.19,0l.38-.23,13.65-8.29L155.14,131a3.79,3.79,0,0,1,.34-.2c.13-.08.2,0,.2.14a.31.31,0,0,1,0,.1v3s0,.09,0,.13-.19.2-.3.27l-2.38,1.5-35.54,22.26-14.3,8.95-.42.26a.21.21,0,0,1-.19,0,1.28,1.28,0,0,1-.25-.15,25.63,25.63,0,0,1-4.91-3.89,16.47,16.47,0,0,1-1.88-2.29,10.78,10.78,0,0,1-1.38-2.73,12.12,12.12,0,0,1-.36-1.44c-.12-.63-.25-1.26-.34-1.9a19.11,19.11,0,0,1-.2-4.14A20.74,20.74,0,0,1,95,144,30.46,30.46,0,0,1,97.79,139a46.52,46.52,0,0,1,3.53-4.52,70.42,70.42,0,0,1,5.64-5.69,113.19,113.19,0,0,1,8.87-7.19c1.41-1,2.84-2,4.28-3q3.57-2.49,7.3-4.74a134.93,134.93,0,0,1,12.15-6.52c2.91-1.36,5.87-2.59,8.91-3.66a66.49,66.49,0,0,1,6.77-2c1-.25,2.09-.46,3.15-.65.71-.12,1.43-.24,2.14-.34.39-.06.79-.1,1.18-.14l1.58-.15.24,0c1.55-.12,3.1-.16,4.65-.14l.89,0c.88,0,1.75.09,2.62.17.64,0,1.27.13,1.91.23a25.93,25.93,0,0,1,7.07,2,18.09,18.09,0,0,1,4.55,2.94,16.9,16.9,0,0,1,4.62,6.86,19.28,19.28,0,0,1,1,4c.06.41.08.82.1,1.23a1.27,1.27,0,0,0,.08.48V122a.64.64,0,0,0-.08.33c0,.36,0,.73-.05,1.09-.08.65-.17,1.31-.29,2a37.34,37.34,0,0,1-1.32,5.12,51.45,51.45,0,0,1-3,7.07,70.44,70.44,0,0,1-4.17,7.12c-.11.17-.22.33-.32.5-.5.88-1.05,1.72-1.62,2.54a75.34,75.34,0,0,1-5.16,6.52,114.65,114.65,0,0,1-9.06,9.12c-3.5,3.16-7.16,6.13-10.94,9a205.05,205.05,0,0,1-19.47,12.77c-1.46.85-3,1.61-4.52,2.34a95.54,95.54,0,0,1-16.64,5.93c-1.66.42-3.33.81-5,1.15-1,.19-1.91.36-2.87.53-.69.13-1.39.25-2.09.36l-1.57.22-1.86.23-1.57.18-1.28.13-1.78.15-1.87.13a.54.54,0,0,0-.28.08Z"/><path class="cls-4" d="M126.32,122l.14-.13a25.07,25.07,0,0,1,3.7-3.36,54.25,54.25,0,0,1,7.1-4.61,76.36,76.36,0,0,1,9.51-4.38,81.76,81.76,0,0,1,8.37-2.73c1.46-.39,2.93-.72,4.41-1,.88-.15,1.76-.28,2.64-.38a41.65,41.65,0,0,1,5.47-.24c.78,0,1.56.07,2.33.14s1.67.2,2.5.34a26.88,26.88,0,0,1,2.69.61,18.56,18.56,0,0,1,4.18,1.71,13.17,13.17,0,0,1,3.24,2.56,12.59,12.59,0,0,1,2.77,4.84,17.68,17.68,0,0,1,.59,2.69,19.27,19.27,0,0,1,.17,3.94c0,.53-.07,1-.14,1.57a32.54,32.54,0,0,1-2.28,8.38,53.59,53.59,0,0,1-3.16,6.46,78.05,78.05,0,0,1-5.51,8.34c-1.6,2.13-3.29,4.2-5.08,6.18-.57.63-1.16,1.23-1.75,1.82-2.39,2.42-4.85,4.76-7.41,7a101.67,101.67,0,0,1-9.46,7.46c-.31.22-.63.43-1,.64a.22.22,0,0,1-.22,0h0l.15-.11a68,68,0,0,0,6.89-7.7,50.22,50.22,0,0,0,4.26-6.54,65.55,65.55,0,0,0,3.84-8.45,45.74,45.74,0,0,0,1.74-5.74c.21-.94.39-1.89.53-2.85a29.34,29.34,0,0,0,.32-3.75,25.57,25.57,0,0,0-.12-2.9,18,18,0,0,0-.61-3.18,15,15,0,0,0-2.49-5,14.61,14.61,0,0,0-4.43-3.85A18.57,18.57,0,0,0,156,118a25.5,25.5,0,0,0-3.21-.69c-.87-.13-1.73-.22-2.6-.29-1.42-.11-2.83-.09-4.24-.06-.67,0-1.33.08-2,.14s-1.2.13-1.79.22-1.36.2-2,.32a52.5,52.5,0,0,0-5.5,1.35,65.51,65.51,0,0,0-7.54,2.78l-.48.21a.36.36,0,0,1-.23,0Z"/><path class="cls-4" d="M154.11,73l0,.09c-.13.18-.26.35-.4.51A38.57,38.57,0,0,1,149.42,78a60.58,60.58,0,0,1-5.12,4c-2.46,1.75-5,3.36-7.62,4.88-1.46.86-2.94,1.7-4.43,2.5-.66.35-1.32.67-2,1l-.13.06a.31.31,0,0,1-.28,0l-.37-.25a40.48,40.48,0,0,1-3.85-3A55.65,55.65,0,0,1,120,81.74a81.29,81.29,0,0,1-8.8-12c-.18-.29-.35-.6-.52-.9a.18.18,0,0,1,0-.23c.06-.09.14-.18.21-.27A33.56,33.56,0,0,1,114,65a58.14,58.14,0,0,1,4.64-3.94c2.16-1.65,4.41-3.18,6.72-4.62q4.09-2.55,8.4-4.72a4.54,4.54,0,0,1,.45-.21.14.14,0,0,1,.17.05l.1.17a40.15,40.15,0,0,0,3.55,5.3c1.27,1.64,2.63,3.21,4.05,4.73,2.22,2.4,4.56,4.67,7,6.86,1.58,1.42,3.19,2.81,4.84,4.15a1.45,1.45,0,0,1,.18.17A.06.06,0,0,1,154.11,73Z"/><path class="cls-4" d="M140,54.35l.25-.16Q142.31,53,144.46,52a.88.88,0,0,1,.22-.1.15.15,0,0,1,.13,0,.46.46,0,0,1,.11.16,44.62,44.62,0,0,0,5.13,7A72.38,72.38,0,0,0,156,65a92.73,92.73,0,0,0,7.78,6.34l.72.53s.08.09.13.14l-.31.47a37.16,37.16,0,0,1-4,4.77,55.52,55.52,0,0,1-5.95,5.2,79.83,79.83,0,0,1-9.62,6.23c-1.23.68-2.47,1.33-3.73,1.93a2.87,2.87,0,0,1-.54.24c-.44-.23-2.1-1.33-2.68-1.78l-.13-.13c.1-.15.25-.19.37-.27,1.11-.65,2.22-1.3,3.32-2,2.42-1.47,4.78-3,7.06-4.74a56.9,56.9,0,0,0,5-4.17q1.38-1.3,2.64-2.73c.65-.73,1.3-1.45,1.9-2.22a.81.81,0,0,0,.21-.33,1,1,0,0,0-.32-.31c-.82-.66-1.66-1.3-2.47-2a113.54,113.54,0,0,1-9.14-8.4c-1.61-1.67-3.16-3.41-4.62-5.22-.53-.66-1-1.34-1.48-2Z"/><polygon class="cls-4" points="132.35 97.11 132.31 97.12 132.32 97.09 132.35 97.11"/><path class="cls-4" d="M125.19,121.37l0,0s0,0,0,0Z"/><path class="cls-4" d="M149.94,171.13v0s0,0,0,0Z"/></g></g></g></g></svg>