<svg xmlns="http://www.w3.org/2000/svg" viewBox="0 0 108.13 82.43"><defs><style>.cls-1,.cls-2{fill:none;stroke-miterlimit:10;}.cls-1{stroke:#0083a1;}.cls-2{stroke:#e39717;}</style></defs><g id="Layer_2" data-name="Layer 2"><path class="cls-1" d="M57.69,71.73H28a4.1,4.1,0,0,1-4.1-4.1V29.32a4.11,4.11,0,0,1,4.1-4.1H81.54a4.1,4.1,0,0,1,4.09,4.1V41"/><rect class="cls-2" x="57.69" y="41" width="47.05" height="34.44" rx="3.79"/><line class="cls-1" x1="81.22" y1="28.26" x2="79.5" y2="28.26"/><line class="cls-1" x1="77.79" y1="28.26" x2="76.07" y2="28.26"/><line class="cls-1" x1="74.36" y1="28.26" x2="72.64" y2="28.26"/><line class="cls-2" x1="100.95" y1="44.32" x2="99.23" y2="44.32"/><line class="cls-2" x1="97.52" y1="44.32" x2="95.8" y2="44.32"/><line class="cls-2" x1="94.08" y1="44.32" x2="92.37" y2="44.32"/><line class="cls-2" x1="45.69" y1="13.57" x2="43.97" y2="13.57"/><line class="cls-2" x1="42.26" y1="13.57" x2="40.54" y2="13.57"/><line class="cls-2" x1="38.83" y1="13.57" x2="37.11" y2="13.57"/><line class="cls-1" x1="27.92" y1="33.9" x2="63.33" y2="33.9"/><line class="cls-1" x1="27.92" y1="36.96" x2="41.4" y2="36.96"/><line class="cls-1" x1="27.92" y1="40.03" x2="34.66" y2="40.03"/><line class="cls-1" x1="27.92" y1="43.09" x2="47.03" y2="43.09"/><line class="cls-1" x1="27.92" y1="46.15" x2="42.38" y2="46.15"/><line class="cls-1" x1="27.92" y1="49.22" x2="53.28" y2="49.22"/><line class="cls-2" x1="62.23" y1="46.15" x2="73.5" y2="46.15"/><line class="cls-2" x1="62.23" y1="49.22" x2="69.58" y2="49.22"/><line class="cls-2" x1="62.23" y1="52.28" x2="94.21" y2="52.28"/><line class="cls-2" x1="62.23" y1="55.34" x2="65.9" y2="55.34"/><line class="cls-2" x1="62.23" y1="58.41" x2="70.19" y2="58.41"/><line class="cls-2" x1="62.23" y1="61.47" x2="75.22" y2="61.47"/><line class="cls-2" x1="62.23" y1="64.53" x2="79.5" y2="64.53"/><path class="cls-2" d="M49.55,72.18a4.88,4.88,0,0,1-4.88,4.88H15.31a4.89,4.89,0,0,1-4.88-4.88V14a4.89,4.89,0,0,1,4.88-4.88H44.67A4.88,4.88,0,0,1,49.55,14v8.17"/></g></svg>