<svg xmlns="http://www.w3.org/2000/svg" viewBox="0 0 50 50"><defs><style>.cls-1{fill:none;stroke:#666;stroke-linecap:round;stroke-miterlimit:10;}</style></defs><g id="Layer_2" data-name="Layer 2"><circle class="cls-1" cx="24.66" cy="18.86" r="15.41"/><polyline class="cls-1" points="24.94 11.7 24.94 18.86 18.66 24.94"/><path class="cls-1" d="M37.15,47.82,35.74,43.5l8.52-8.64s.37-4.27.37-5.94l.52-3.53-1.83-4.88a.58.58,0,0,0-.93-.22h0a.54.54,0,0,0-.18.52l.51,3c.06,2.32-2,7.42-2,7.07a4,4,0,0,0-1.53.75"/><path class="cls-1" d="M36.9,39.57l.51-1.29s2.56-4,3.82-5,0-1.74,0-1.74c-2.31-1-6,3.61-6,3.61h0a4.13,4.13,0,0,0-.5.15,5.19,5.19,0,0,0-3.5,4.91v7.64"/><path class="cls-1" d="M12.1,47.82l1.42-4.32L5,34.86s-.37-4.27-.37-5.94l-.52-3.53,1.83-4.88a.58.58,0,0,1,.93-.22h0a.54.54,0,0,1,.18.52l-.52,3c0,2.32,2.05,7.42,2,7.07a4,4,0,0,1,1.53.75"/><path class="cls-1" d="M12.36,39.57l-.51-1.29s-2.56-4-3.83-5,0-1.74,0-1.74c2.32-1,6,3.61,6,3.61h0a4.13,4.13,0,0,1,.5.15A5.2,5.2,0,0,1,18,40.18v7.64"/><line class="cls-1" x1="24.66" y1="3.8" x2="24.66" y2="7.28"/><line class="cls-1" x1="20.02" y1="4.62" x2="20.61" y2="6.44"/><line class="cls-1" x1="15.86" y1="6.84" x2="16.98" y2="8.38"/><line class="cls-1" x1="12.59" y1="10.23" x2="14.14" y2="11.36"/><line class="cls-1" x1="10.53" y1="14.47" x2="12.35" y2="15.06"/><line class="cls-1" x1="9.88" y1="19.14" x2="13.22" y2="19.14"/><line class="cls-1" x1="10.7" y1="23.78" x2="12.52" y2="23.19"/><line class="cls-1" x1="12.92" y1="27.94" x2="14.47" y2="26.82"/><line class="cls-1" x1="16.32" y1="31.21" x2="17.44" y2="29.67"/><line class="cls-1" x1="20.55" y1="33.27" x2="21.14" y2="31.45"/><line class="cls-1" x1="25.22" y1="33.92" x2="25.22" y2="30.11"/><line class="cls-1" x1="29.86" y1="33.1" x2="29.27" y2="31.28"/><line class="cls-1" x1="34.02" y1="30.88" x2="32.9" y2="29.33"/><line class="cls-1" x1="37.29" y1="27.48" x2="35.75" y2="26.36"/><line class="cls-1" x1="39.35" y1="23.25" x2="37.54" y2="22.66"/><line class="cls-1" x1="40" y1="18.58" x2="36.19" y2="18.58"/><line class="cls-1" x1="39.18" y1="13.94" x2="37.36" y2="14.53"/><line class="cls-1" x1="36.96" y1="9.78" x2="35.42" y2="10.9"/><line class="cls-1" x1="33.57" y1="6.51" x2="32.44" y2="8.05"/><line class="cls-1" x1="29.33" y1="4.45" x2="28.74" y2="6.26"/></g></svg>