<svg xmlns="http://www.w3.org/2000/svg" viewBox="0 0 100 100"><defs><style>.cls-1{fill:none;stroke:#fff;stroke-linecap:round;stroke-miterlimit:10;stroke-width:4px;}.cls-2{fill:#fff;}</style></defs><g id="Layer_2" data-name="Layer 2"><path class="cls-1" d="M85.88,42.43V80.3A13.47,13.47,0,0,1,72.41,93.77H23.15A13.47,13.47,0,0,1,9.68,80.3V31A13.47,13.47,0,0,1,23.15,17.57H61"/><path class="cls-1" d="M62.15,54.74,47.73,60.58l3.72-15.1L75.19,18.07h0a14,14,0,0,1,10.7,9.26h0Z"/><path class="cls-1" d="M80.35,12.39l2.8-3.23a7.07,7.07,0,0,1,10-.72h0a7.08,7.08,0,0,1,.72,10l-2.8,3.23h0a19.21,19.21,0,0,0-10.7-9.26Z"/><polyline class="cls-1" points="51.45 45.48 56.6 45.84 61.17 49.79 62.15 54.74"/><path class="cls-2" d="M49.67,52.71s5.68-1.14,5.58,4.83l-7.52,3Z"/></g></svg>