<svg xmlns="http://www.w3.org/2000/svg" viewBox="0 0 420 100"><defs><style>.cls-1,.cls-2{fill:none;stroke-miterlimit:10;stroke-width:0.25px;}.cls-1{stroke:#e39717;}.cls-2{stroke:#0083a1;}.cls-3{fill:#e39717;}.cls-4{fill:#0083a1;}</style></defs><g id="Layer_2" data-name="Layer 2"><polyline class="cls-1" points="420 89.05 340.2 89.05 340.2 60.95 285.49 60.95 285.49 72.21 214.76 72.21 214.76 49.34 171.15 49.34 171.15 92.96 33.87 92.96"/><line class="cls-2" x1="326.4" y1="77.08" x2="360.91" y2="77.08"/><polyline class="cls-2" points="366.82 71.12 366.82 49.34 392.7 49.34 392.7 58.05 420 58.05"/><rect class="cls-2" x="193.69" y="72.55" width="15.65" height="15.65" transform="translate(403.03 160.74) rotate(-180)"/><rect class="cls-3" x="389.8" y="54.95" width="5.31" height="5.31" transform="translate(784.91 115.21) rotate(-180)"/><rect class="cls-2" x="374.2" y="57.22" width="7.4" height="7.4" transform="translate(755.81 121.84) rotate(-180)"/><polyline class="cls-2" points="419.51 81.94 385.55 81.94 385.55 65.9 419.51 65.9"/><polyline class="cls-2" points="291.49 72.55 291.49 64.62 275.06 64.62 275.06 86.35 218.87 86.35 218.87 80.37 209.34 80.37"/><polyline class="cls-2" points="420 95.43 284.26 95.43 284.26 80.37 287.96 80.37"/><polyline class="cls-2" points="193.69 80.03 180.41 80.03 180.41 69.14 143.95 69.14 143.95 83.92 57.2 83.92"/><rect class="cls-4" x="378.65" y="79.16" width="13.8" height="13.8" transform="translate(771.1 172.12) rotate(-180)"/><rect class="cls-2" x="360.91" y="71.12" width="10.83" height="10.83" transform="translate(732.65 153.06) rotate(-180)"/><rect class="cls-2" x="287.96" y="72.55" width="38.45" height="17.21" transform="translate(614.36 162.3) rotate(-180)"/><polyline class="cls-1" points="419.22 42.92 348.09 42.92 348.09 35.88 233.83 35.88 233.83 42.92 152.83 42.92 133.65 42.92 121.72 30.99 32.3 30.99"/><polyline class="cls-2" points="419.22 36.95 360.91 36.95 360.91 29.23 402.53 29.23 402.53 21.4 326.4 21.4 326.4 29.18 229.91 29.18 219.18 18.44 140.7 18.44 135.11 24.03 65.17 24.03"/><polyline class="cls-1" points="419.51 30.99 409.91 30.99 409.91 18.44 302.3 18.44 297.21 23.53 242.2 23.53 231.07 12.41 123.09 12.41 114.79 20.71 40.91 20.71"/><polyline class="cls-2" points="419.22 12.41 407.56 12.41 407.56 4.57 341.04 4.57 341.04 12.41 269.04 12.41 269.04 18.44 250.41 18.44 250.41 4.57 105.09 4.57 105.09 11.51 67.13 11.51"/><polyline class="cls-2" points="419.22 52.31 397.78 52.31 397.78 45.27 347.3 45.27 347.3 54.95 260.04 54.95 248.95 66.05 214.76 66.05"/></g></svg>