<svg xmlns="http://www.w3.org/2000/svg" viewBox="0 0 108.13 82.43"><defs><style>.cls-1,.cls-3{fill:none;stroke-miterlimit:10;}.cls-1{stroke:#e39717;}.cls-2{fill:#0083a1;}.cls-3{stroke:#0083a1;}</style></defs><g id="Layer_2" data-name="Layer 2"><path class="cls-1" d="M41.44,56.27c-5.76,1.58-10.1,5.63-13,11.21,0,0,0,0,0,0a36.92,36.92,0,0,0-3.24,9.33c0,.14-.1-.4-.1-.4L25,61.79V58.93a7.61,7.61,0,1,0-6.38,0V61.5l-.09,14.9a.1.1,0,0,1-.19,0A34.44,34.44,0,0,0,13.8,65.11,20.09,20.09,0,0,0,2.2,56.27c.91-1.45,1.82-2.89,2.71-4.34a65.08,65.08,0,0,0,8.16-18.68c.11-.43.3-.53.71-.53H29.86c.41,0,.6.1.71.53a65.08,65.08,0,0,0,8.16,18.68C39.62,53.38,40.53,54.82,41.44,56.27Z"/><rect class="cls-1" x="13" y="20.69" width="17.64" height="8.11"/><path class="cls-1" d="M13,20.69s-7.54-4.3-7.54-16.9"/><path class="cls-1" d="M30.64,20.69s7.16-4.3,7.16-16.9"/><path class="cls-2" d="M18.62,61.5l-.09,14.9a.1.1,0,0,1-.19,0A34.44,34.44,0,0,0,13.8,65.11c-.32-3.51-.49-9.29,2.53-5.86A18.35,18.35,0,0,0,18.62,61.5Z"/><path class="cls-2" d="M28.46,67.48s0,0,0,0a36.92,36.92,0,0,0-3.24,9.33c0,.14-.1-.4-.1-.4L25,61.79C27.08,61.45,31,61.48,28.46,67.48Z"/><line class="cls-3" x1="91.43" y1="46.65" x2="101.99" y2="46.65"/><polyline class="cls-3" points="80.87 46.65 82.68 46.65 85.62 46.65"/><polyline class="cls-3" points="63.7 46.65 65.88 46.65 71.61 46.65"/><path class="cls-3" d="M30.64,76.5h66a7.41,7.41,0,0,0,7.41-7.41h0a7.41,7.41,0,0,0-7.41-7.41H56.18a7.52,7.52,0,0,1-7.51-7.52h0a7.51,7.51,0,0,1,7.51-7.51H71.61"/></g></svg>