<svg xmlns="http://www.w3.org/2000/svg" viewBox="0 0 100 100"><defs><style>.cls-1{fill:none;stroke:#fff;stroke-linecap:round;stroke-miterlimit:10;stroke-width:4px;}</style></defs><g id="Layer_2" data-name="Layer 2"><path class="cls-1" d="M82.12,53.28c.65.41,3.69,3.25,4.3,3.72l6.32-6.32c-.46-.61-3.3-3.66-3.71-4.3A25.46,25.46,0,0,1,87.21,43a21.47,21.47,0,0,0,1.85-4.47,28.53,28.53,0,0,1,3.66-1.12c.76-.14,4.91-.29,5.67-.38V28.09c-.76-.12-4.91-.26-5.67-.41a27,27,0,0,1-3.66-1.11,21.78,21.78,0,0,0-1.85-4.48A25.34,25.34,0,0,1,89,18.73c.41-.65,3.25-3.69,3.71-4.31L86.42,8.1c-.61.47-3.65,3.31-4.3,3.72a24.17,24.17,0,0,1-3.36,1.81,22.46,22.46,0,0,0-4.48-1.84,27,27,0,0,1-1.11-3.66c-.18-.76-.29-4.91-.41-5.67h-9c-.08.76-.23,4.91-.38,5.67a27,27,0,0,1-1.11,3.66,21.44,21.44,0,0,0-4.47,1.84,23.73,23.73,0,0,1-3.37-1.81c-.64-.41-3.69-3.25-4.3-3.72l-6.32,6.35c.47.62,3.3,3.63,3.71,4.28a24.24,24.24,0,0,1,1.82,3.36,21.21,21.21,0,0,0-1.84,4.48,27,27,0,0,1-3.66,1.11c-.76.18-4.92.29-5.68.41v1.64m20.29.92a10,10,0,0,1,19.88,1.91"/><rect class="cls-1" x="6.13" y="33.2" width="75.39" height="48.75" rx="2.39"/><line class="cls-1" x1="16.1" y1="94.07" x2="68.94" y2="94.07"/><line class="cls-1" x1="32.49" y1="81.95" x2="32.49" y2="93.26"/><line class="cls-1" x1="52.54" y1="81.95" x2="52.54" y2="93.26"/><path class="cls-1" d="M29.88,41.57H16.2a1.49,1.49,0,0,0-1.49,1.49v12.8"/><line class="cls-1" x1="36.05" y1="41.57" x2="40.35" y2="41.57"/><line class="cls-1" x1="45.14" y1="41.57" x2="45.48" y2="41.57"/></g></svg>