<svg xmlns="http://www.w3.org/2000/svg" viewBox="0 0 100 100"><defs><style>.cls-1{fill:none;stroke:#fff;stroke-linecap:round;stroke-miterlimit:10;stroke-width:4px;}</style></defs><g id="Layer_2" data-name="Layer 2"><line class="cls-1" x1="17.47" y1="54.41" x2="22.55" y2="54.41"/><line class="cls-1" x1="17.47" y1="64.01" x2="22.55" y2="64.01"/><line class="cls-1" x1="17.47" y1="73.61" x2="22.55" y2="73.61"/><line class="cls-1" x1="17.47" y1="83.21" x2="22.55" y2="83.21"/><line class="cls-1" x1="31.99" y1="54.41" x2="37.08" y2="54.41"/><line class="cls-1" x1="31.99" y1="64.01" x2="37.08" y2="64.01"/><line class="cls-1" x1="31.99" y1="73.61" x2="37.08" y2="73.61"/><line class="cls-1" x1="31.99" y1="83.21" x2="37.08" y2="83.21"/><line class="cls-1" x1="46" y1="54.41" x2="51.08" y2="54.41"/><line class="cls-1" x1="46" y1="63.77" x2="51.08" y2="63.77"/><path class="cls-1" d="M59,8.3H11.4a2.81,2.81,0,0,0-2.81,2.81V41.42l2.09,44,3.16,7.18a2.81,2.81,0,0,0,2.8,2.8H53.73a2.8,2.8,0,0,0,2.8-2.8l2.29-7.18,3-44V11.11A2.81,2.81,0,0,0,59,8.3Z"/><rect class="cls-1" x="15.57" y="14.63" width="39.23" height="26.79" rx="1.11"/><path class="cls-1" d="M65.44,22.2H85.29a6.11,6.11,0,0,1,6.12,6.11V57.66a6.12,6.12,0,0,1-6.12,6.11H62.6"/><line class="cls-1" x1="81.18" y1="22.2" x2="81.18" y2="63.98"/><polyline class="cls-1" points="46 72.38 46 83.21 48.54 83.21"/><polyline class="cls-1" points="52.35 83.21 52.35 72.38 49.81 72.38"/></g></svg>