<svg xmlns="http://www.w3.org/2000/svg" viewBox="0 0 50 50"><defs><style>.cls-1{fill:none;stroke:#666;stroke-miterlimit:10;}</style></defs><g id="Layer_2" data-name="Layer 2"><path class="cls-1" d="M35,18.49a10,10,0,0,1-2.27-.95,2,2,0,0,1-1-2.32,10.11,10.11,0,0,1,.93-2.28,2,2,0,0,0-.33-2.43l-2-2A2,2,0,0,0,28,8.16a10.11,10.11,0,0,1-2.28.93,2,2,0,0,1-2.32-1,10,10,0,0,1-1-2.27,2,2,0,0,0-1.95-1.49H17.59a2,2,0,0,0-1.95,1.49,10.21,10.21,0,0,1-1,2.27,2,2,0,0,1-2.32,1,10.14,10.14,0,0,1-2.28-.94,2,2,0,0,0-2.43.33l-2,2a2,2,0,0,0-.34,2.42,9.87,9.87,0,0,1,.94,2.28,2,2,0,0,1-1,2.32,10.6,10.6,0,0,1-2.28,1,2,2,0,0,0-1.48,2V23.3A2,2,0,0,0,3,25.25a10.09,10.09,0,0,1,2.28.95,2,2,0,0,1,1,2.32A10.33,10.33,0,0,1,5.3,30.8a2,2,0,0,0,.33,2.43l2,2a2,2,0,0,0,2.43.33,10.3,10.3,0,0,1,2.28-.93,2,2,0,0,1,2.32,1,10,10,0,0,1,1,2.27,2,2,0,0,0,1.95,1.49h2.86a2,2,0,0,0,2-1.49,10.17,10.17,0,0,1,.94-2.27,2.05,2.05,0,0,1,2.32-1,10.21,10.21,0,0,1,2.29.94,2,2,0,0,0,2.42-.33l2-2a2,2,0,0,0,.33-2.43,10.06,10.06,0,0,1-.94-2.27,2.05,2.05,0,0,1,1-2.32,10.32,10.32,0,0,1,2.28-1,2,2,0,0,0,1.48-1.95V20.44A2,2,0,0,0,35,18.49Z"/><circle class="cls-1" cx="19.02" cy="21.87" r="9.88"/><polyline class="cls-1" points="33.89 18.1 47.37 18.1 47.37 45.54 16.66 45.54 16.66 39.37"/><polyline class="cls-1" points="26.84 15.85 14.7 15.85 14.7 30.51"/><line class="cls-1" x1="45.27" y1="25.5" x2="40.78" y2="25.5"/><line class="cls-1" x1="45.27" y1="20.86" x2="44.11" y2="20.86"/><line class="cls-1" x1="43.02" y1="20.86" x2="41.87" y2="20.86"/><line class="cls-1" x1="40.78" y1="20.86" x2="39.63" y2="20.86"/><line class="cls-1" x1="45.27" y1="28.04" x2="37.06" y2="28.04"/><path class="cls-1" d="M34.4,45.54a8.24,8.24,0,0,1,13-9.83"/></g></svg>