<svg xmlns="http://www.w3.org/2000/svg" viewBox="0 0 50 50"><defs><style>.cls-1{fill:none;stroke:#666;stroke-miterlimit:10;}</style></defs><g id="Layer_2" data-name="Layer 2"><rect class="cls-1" x="11.28" y="3.07" width="16.26" height="41.12" rx="1.59" transform="translate(15.17 -6.65) rotate(31.44)"/><line class="cls-1" x1="35.29" y1="13.23" x2="33.35" y2="12.05"/><line class="cls-1" x1="33.65" y1="15.92" x2="31.71" y2="14.74"/><line class="cls-1" x1="32" y1="18.61" x2="30.06" y2="17.43"/><line class="cls-1" x1="30.36" y1="21.3" x2="25.73" y2="18.47"/><line class="cls-1" x1="28.91" y1="23.67" x2="26.97" y2="22.49"/><line class="cls-1" x1="27.26" y1="26.36" x2="25.33" y2="25.18"/><line class="cls-1" x1="25.62" y1="29.05" x2="23.68" y2="27.87"/><line class="cls-1" x1="23.97" y1="31.74" x2="19.35" y2="28.91"/><line class="cls-1" x1="22.53" y1="34.11" x2="20.59" y2="32.92"/><line class="cls-1" x1="20.88" y1="36.8" x2="18.94" y2="35.61"/><line class="cls-1" x1="19.24" y1="39.49" x2="17.3" y2="38.3"/><line class="cls-1" x1="17.59" y1="42.18" x2="12.97" y2="39.35"/><line class="cls-1" x1="6.04" y1="39.55" x2="23.61" y2="10.81"/><line class="cls-1" x1="25.45" y1="7.8" x2="27.49" y2="4.47"/><circle class="cls-1" cx="24.53" cy="9.31" r="1.77"/><path class="cls-1" d="M29.64,22.86A18.51,18.51,0,0,1,45.92,41.23h2.47v6.58H5V40.06H6.8"/><path class="cls-1" d="M25.58,29.41a9.77,9.77,0,0,1,1.44-.1A11.68,11.68,0,0,1,31,30a11.81,11.81,0,0,1,3.46,2,11.51,11.51,0,0,1,3.94,6.82,10.94,10.94,0,0,1,.17,2"/><line class="cls-1" x1="38.35" y1="38.82" x2="39.77" y2="38.57"/><line class="cls-1" x1="36.98" y1="35.06" x2="38.23" y2="34.35"/><line class="cls-1" x1="34.41" y1="32" x2="35.34" y2="30.9"/><line class="cls-1" x1="30.95" y1="30" x2="31.45" y2="28.65"/><line class="cls-1" x1="27.02" y1="29.31" x2="27.02" y2="27.87"/><path class="cls-1" d="M25.58,29.41a9.77,9.77,0,0,1,1.44-.1A11.68,11.68,0,0,1,31,30a11.81,11.81,0,0,1,3.46,2,11.51,11.51,0,0,1,3.94,6.82,10.94,10.94,0,0,1,.17,2H18.94"/><line class="cls-1" x1="46.2" y1="47.8" x2="46.2" y2="45.54"/><line class="cls-1" x1="39.77" y1="47.8" x2="39.77" y2="45.54"/><line class="cls-1" x1="33.34" y1="47.8" x2="33.34" y2="45.54"/><line class="cls-1" x1="26.91" y1="47.8" x2="26.91" y2="45.54"/><line class="cls-1" x1="20.48" y1="47.8" x2="20.48" y2="45.54"/></g></svg>