<svg xmlns="http://www.w3.org/2000/svg" viewBox="0 0 420 100"><defs><style>.cls-1,.cls-2{fill:none;stroke-miterlimit:10;stroke-width:0.25px;}.cls-1{stroke:#e39717;}.cls-2{stroke:#0083a1;}.cls-3{fill:#e39717;}.cls-4{fill:#0083a1;}</style></defs><g id="Layer_2" data-name="Layer 2"><polyline class="cls-1" points="0 10.95 79.8 10.95 79.8 39.05 134.51 39.05 134.51 27.79 205.24 27.79 205.24 50.66 248.85 50.66 248.85 7.04 386.13 7.04"/><line class="cls-2" x1="93.6" y1="22.92" x2="59.09" y2="22.92"/><polyline class="cls-2" points="53.18 28.88 53.18 50.66 27.3 50.66 27.3 41.95 0 41.95"/><rect class="cls-2" x="210.66" y="11.8" width="15.65" height="15.65"/><rect class="cls-3" x="24.89" y="39.74" width="5.31" height="5.31"/><rect class="cls-2" x="38.39" y="35.38" width="7.4" height="7.4"/><polyline class="cls-2" points="0.49 18.05 34.45 18.05 34.45 34.1 0.49 34.1"/><polyline class="cls-2" points="128.51 27.45 128.51 35.38 144.94 35.38 144.94 13.65 201.13 13.65 201.13 19.63 210.66 19.63"/><polyline class="cls-2" points="0 4.57 135.74 4.57 135.74 19.63 132.04 19.63"/><polyline class="cls-2" points="226.31 19.98 239.59 19.98 239.59 30.86 276.05 30.86 276.05 16.07 362.8 16.07"/><rect class="cls-4" x="27.55" y="7.04" width="13.8" height="13.8"/><rect class="cls-2" x="48.26" y="18.06" width="10.83" height="10.83"/><rect class="cls-2" x="93.6" y="10.24" width="38.45" height="17.21"/><polyline class="cls-1" points="0.78 57.08 71.91 57.08 71.91 64.12 186.17 64.12 186.17 57.08 267.17 57.08 286.35 57.08 298.28 69.01 387.7 69.01"/><polyline class="cls-2" points="0.78 63.05 59.09 63.05 59.09 70.78 17.47 70.78 17.47 78.6 93.6 78.6 93.6 70.82 190.09 70.82 200.82 81.56 279.3 81.56 284.89 75.97 354.83 75.97"/><polyline class="cls-1" points="0.49 69.01 10.09 69.01 10.09 81.56 117.7 81.56 122.79 76.47 177.8 76.47 188.93 87.59 296.91 87.59 305.21 79.29 379.09 79.29"/><polyline class="cls-2" points="0.78 87.59 12.44 87.59 12.44 95.43 78.96 95.43 78.96 87.59 150.96 87.59 150.96 81.56 169.59 81.56 169.59 95.43 314.91 95.43 314.91 88.49 352.87 88.49"/><polyline class="cls-2" points="0.78 47.69 22.22 47.69 22.22 54.73 72.7 54.73 72.7 45.05 159.96 45.05 171.05 33.95 205.24 33.95"/></g></svg>